<mxfile host="app.diagrams.net" agent="Mozilla/5.0 (Windows NT 10.0; Win64; x64) AppleWebKit/537.36 (KHTML, like Gecko) Chrome/135.0.0.0 Safari/537.36" version="26.2.13">
  <diagram name="Page-1" id="zku0cI-1hT0FP6qLM4zK">
    <mxGraphModel dx="1044" dy="658" grid="1" gridSize="10" guides="1" tooltips="1" connect="1" arrows="1" fold="1" page="1" pageScale="1" pageWidth="850" pageHeight="1100" math="0" shadow="0">
      <root>
        <mxCell id="0" />
        <mxCell id="1" parent="0" />
        <mxCell id="Qg-hDZrn5Pz0OPRh18o0-1" value="" style="rounded=0;whiteSpace=wrap;html=1;fillColor=#dae8fc;strokeColor=#6c8ebf;" vertex="1" parent="1">
          <mxGeometry x="430" y="163" width="330" height="210" as="geometry" />
        </mxCell>
        <mxCell id="Qg-hDZrn5Pz0OPRh18o0-2" value="Pod" style="ellipse;whiteSpace=wrap;html=1;aspect=fixed;fillColor=#60a917;fontColor=#ffffff;strokeColor=#2D7600;" vertex="1" parent="1">
          <mxGeometry x="620" y="210" width="80" height="80" as="geometry" />
        </mxCell>
        <mxCell id="Qg-hDZrn5Pz0OPRh18o0-3" value="" style="points=[];aspect=fixed;html=1;align=center;shadow=0;dashed=0;fillColor=#FF6A00;strokeColor=none;shape=mxgraph.alibaba_cloud.scc_super_computing_cluster;" vertex="1" parent="1">
          <mxGeometry x="510" y="223.3" width="60.7" height="66.7" as="geometry" />
        </mxCell>
        <mxCell id="Qg-hDZrn5Pz0OPRh18o0-5" value="" style="shape=actor;whiteSpace=wrap;html=1;" vertex="1" parent="1">
          <mxGeometry x="110" y="235" width="40" height="85" as="geometry" />
        </mxCell>
        <mxCell id="Qg-hDZrn5Pz0OPRh18o0-6" style="edgeStyle=orthogonalEdgeStyle;rounded=0;orthogonalLoop=1;jettySize=auto;html=1;entryX=-0.014;entryY=0.561;entryDx=0;entryDy=0;entryPerimeter=0;" edge="1" parent="1" source="Qg-hDZrn5Pz0OPRh18o0-5" target="Qg-hDZrn5Pz0OPRh18o0-1">
          <mxGeometry relative="1" as="geometry">
            <Array as="points">
              <mxPoint x="290" y="290" />
              <mxPoint x="290" y="281" />
            </Array>
          </mxGeometry>
        </mxCell>
        <mxCell id="Qg-hDZrn5Pz0OPRh18o0-8" value="Cluster&amp;nbsp;&lt;div&gt;&lt;br&gt;&lt;/div&gt;" style="text;html=1;align=center;verticalAlign=middle;whiteSpace=wrap;rounded=0;" vertex="1" parent="1">
          <mxGeometry x="490" y="193.3" width="60" height="30" as="geometry" />
        </mxCell>
        <mxCell id="Qg-hDZrn5Pz0OPRh18o0-9" style="edgeStyle=none;rounded=0;orthogonalLoop=1;jettySize=auto;html=1;entryX=-0.005;entryY=0.588;entryDx=0;entryDy=0;entryPerimeter=0;" edge="1" parent="1" source="Qg-hDZrn5Pz0OPRh18o0-3" target="Qg-hDZrn5Pz0OPRh18o0-2">
          <mxGeometry relative="1" as="geometry" />
        </mxCell>
        <mxCell id="Qg-hDZrn5Pz0OPRh18o0-10" value="" style="rounded=0;whiteSpace=wrap;html=1;" vertex="1" parent="1">
          <mxGeometry x="420" y="222.5" width="40" height="110" as="geometry" />
        </mxCell>
        <mxCell id="Qg-hDZrn5Pz0OPRh18o0-12" value="NODE-01&amp;nbsp;&lt;div&gt;&lt;br&gt;&lt;/div&gt;" style="text;html=1;align=center;verticalAlign=middle;resizable=0;points=[];autosize=1;strokeColor=none;fillColor=none;" vertex="1" parent="1">
          <mxGeometry x="550" y="123" width="80" height="40" as="geometry" />
        </mxCell>
        <mxCell id="Qg-hDZrn5Pz0OPRh18o0-13" value="USER&lt;div&gt;&lt;br&gt;&lt;/div&gt;" style="text;html=1;align=center;verticalAlign=middle;resizable=0;points=[];autosize=1;strokeColor=none;fillColor=none;" vertex="1" parent="1">
          <mxGeometry x="90" y="323" width="60" height="40" as="geometry" />
        </mxCell>
        <mxCell id="Qg-hDZrn5Pz0OPRh18o0-14" value="NODE-PORT&amp;nbsp;&lt;div&gt;&lt;br&gt;&lt;/div&gt;" style="text;html=1;align=center;verticalAlign=middle;resizable=0;points=[];autosize=1;strokeColor=none;fillColor=none;" vertex="1" parent="1">
          <mxGeometry x="310" y="183" width="100" height="40" as="geometry" />
        </mxCell>
      </root>
    </mxGraphModel>
  </diagram>
</mxfile>
